# xmcd
# 
# Track frame offsets:
#     150
#     22105
#     40010
#     61942
# 
# Disc length: 1061
# 
# Revision: 2
# Processed by: cddbd v1.5.2PL0 Copyright (c) Steve Scherf et al.
# Submitted via: fre:ac v1.0.17
# 
DISCID=2b042304
DTITLE=岡本真夜 - サヨナラ
DYEAR=1997
DGENRE=J-Pop
TTITLE0=サヨナラ
TTITLE1=星空の散歩道
TTITLE2=サヨナラ(ORIGINAL KARAOKE)
TTITLE3=星空の散歩道(ORIGINAL KARAOKE)
EXTD=YEAR: 1997
EXTT0=
EXTT1=
EXTT2=
EXTT3=
PLAYORDER=
